#!OML:ASF H:\LiuWeirdWalks\Patient Classification 1\Patient 1\Session 1\male.ASF
:FULLY-SPECIFIED
:DEGREES
356
root -0.501115 18.033 -22.0637 1.35797 10.9638 -5.21409
lowerback 4.97403 -0.149635 4.31173
upperback -0.0920607 0.168392 3.64663
thorax -2.88779 0.0506004 1.33112
lowerneck -16.2478 -2.80077 0.827435
upperneck 22.1188 -3.25751 -3.50368
head 9.60138 -1.83808 -1.77362
rclavicle -1.33186e-014 2.94201e-014
rhumerus -32.6668 -7.88109 -78.2627
rradius 38.5533
rwrist -13.1175
rhand -17.5631 -4.84215
rfingers 7.12502
rthumb 8.692 -34.6432
lclavicle -1.33186e-014 2.94201e-014
lhumerus -42.009 0.267967 84.3595
lradius 38.8577
lwrist 11.8422
lhand -13.0645 0.668136
lfingers 7.12502
lthumb 13.031 30.2411
rfemur -9.40387 -2.95353 31.352
rtibia 24.4878
rfoot -12.5118 -19.8346
rtoes 1.11565
lfemur -25.4067 -7.47329 -8.93072
ltibia 56.1132
lfoot -10.6211 7.92062
ltoes -19.139
357
root -0.506854 18.0288 -22.0328 1.29013 11.0201 -5.2748
lowerback 5.00989 -0.112304 4.36682
upperback -0.096081 0.224221 3.64508
thorax -2.91151 0.0772911 1.29477
lowerneck -16.0505 -2.88389 0.673532
upperneck 22.0569 -3.36174 -3.38501
head 9.54568 -1.88497 -1.71439
rclavicle 1.36664e-014 -2.54444e-014
rhumerus -32.5478 -7.92234 -78.3067
rradius 38.5015
rwrist -13.0721
rhand -17.4611 -4.83231
rfingers 7.12502
rthumb 8.79043 -34.6292
lclavicle 1.36664e-014 -2.54444e-014
lhumerus -42.1778 0.273881 84.3479
lradius 38.8346
lwrist 11.8302
lhand -13.0685 0.655834
lfingers 7.12502
lthumb 13.0272 30.2291
rfemur -9.21659 -2.93295 31.4657
rtibia 24.4357
rfoot -12.587 -19.9695
rtoes 1.11561
lfemur -25.8934 -7.41319 -8.86131
ltibia 55.5273
lfoot -10.9417 7.98529
ltoes -19.1484
358
root -0.512639 18.0253 -22.0016 1.21997 11.0825 -5.32661
lowerback 5.03928 -0.0742639 4.42185
upperback -0.094389 0.279953 3.63479
thorax -2.92551 0.10401 1.24931
lowerneck -15.9302 -2.95056 0.59238
upperneck 22.0453 -3.44784 -3.32452
head 9.52001 -1.92427 -1.68786
rclavicle -1.23246e-014 -2.38542e-014
rhumerus -32.4416 -7.97237 -78.3573
rradius 38.47
rwrist -13.0483
rhand -17.3768 -4.83595
rfingers 7.12502
rthumb 8.87179 -34.6295
lclavicle -1.23246e-014 -2.38542e-014
lhumerus -42.3427 0.272899 84.3333
lradius 38.8183
lwrist 11.7958
lhand -13.0562 0.649939
lfingers 7.12502
lthumb 13.0391 30.2224
rfemur -9.01383 -2.90803 31.5717
rtibia 24.3634
rfoot -12.651 -20.117
rtoes 1.1248
lfemur -26.3573 -7.35217 -8.80604
ltibia 54.9143
lfoot -11.2506 8.05757
ltoes -19.1919
359
root -0.518212 18.0226 -21.9703 1.15107 11.1336 -5.37265
lowerback 5.06396 -0.0316893 4.47358
upperback -0.0911797 0.340995 3.6208
thorax -2.93509 0.133443 1.20139
lowerneck -15.9035 -2.96991 0.637394
upperneck 22.0672 -3.47427 -3.37322
head 9.52001 -1.93808 -1.7153
rclavicle -3.32964e-015 4.53229e-014
rhumerus -32.3419 -8.02215 -78.4111
rradius 38.4458
rwrist -13.0401
rhand -17.3351 -4.85586
rfingers 7.12502
rthumb 8.91203 -34.6476
lclavicle -3.32964e-015 4.53229e-014
lhumerus -42.5043 0.274876 84.3155
lradius 38.7984
lwrist 11.7474
lhand -13.0231 0.649608
lfingers 7.12502
lthumb 13.071 30.22
rfemur -8.80042 -2.87858 31.6708
rtibia 24.2718
rfoot -12.6968 -20.2581
rtoes 1.12205
lfemur -26.7998 -7.27653 -8.76338
ltibia 54.2762
lfoot -11.5525 8.14178
ltoes -19.2564
360
root -0.523801 18.0206 -21.939 1.08558 11.1705 -5.41284
lowerback 5.08704 0.0147905 4.51965
upperback -0.0855379 0.406588 3.60496
thorax -2.94106 0.165262 1.15434
lowerneck -15.9149 -2.97349 0.705654
upperneck 22.1036 -3.48116 -3.43605
head 9.53188 -1.94257 -1.75024
rclavicle -2.56432e-014 1.51076e-014
rhumerus -32.2444 -8.05461 -78.4741
rradius 38.4409
rwrist -13.1011
rhand -17.3241 -4.88209
rfingers 7.12502
rthumb 8.92258 -34.6734
lclavicle -2.56432e-014 1.51076e-014
lhumerus -42.669 0.27598 84.2979
lradius 38.7897
lwrist 11.7061
lhand -12.985 0.616784
lfingers 7.12502
lthumb 13.1077 30.1848
rfemur -8.5796 -2.84255 31.7638
rtibia 24.1627
rfoot -12.7232 -20.389
rtoes 1.10327
lfemur -27.2192 -7.18254 -8.73289
ltibia 53.6149
lfoot -11.8437 8.23504
ltoes -19.3353
361
root -0.529458 18.0192 -21.9079 1.03312 11.1976 -5.44919
lowerback 5.11138 0.0572868 4.55757
upperback -0.0782473 0.466518 3.59313
thorax -2.94606 0.194436 1.11639
lowerneck -15.9568 -2.94686 0.8129
upperneck 22.1007 -3.44926 -3.52984
head 9.53511 -1.92957 -1.7973
rclavicle 9.79014e-015 -1.27222e-014
rhumerus -32.1231 -8.06499 -78.5423
rradius 38.4239
rwrist -13.1642
rhand -17.3276 -4.87548
rfingers 7.12502
rthumb 8.91919 -34.667
lclavicle 9.79014e-015 -1.27222e-014
lhumerus -42.8247 0.299261 84.2785
lradius 38.787
lwrist 11.6942
lhand -12.9425 0.618668
lfingers 7.12502
lthumb 13.1486 30.1841
rfemur -8.36562 -2.80018 31.853
rtibia 24.0406
rfoot -12.7316 -20.5065
rtoes 1.06981
lfemur -27.6326 -7.07531 -8.70837
ltibia 52.9317
lfoot -12.1145 8.3266
ltoes -19.4232
362
root -0.534907 18.0182 -21.8768 0.985149 11.215 -5.48403
lowerback 5.14032 0.0992787 4.59453
upperback -0.0706694 0.526105 3.58297
thorax -2.95328 0.223431 1.08069
lowerneck -15.9934 -2.91729 0.921049
upperneck 22.0812 -3.41232 -3.62985
head 9.53159 -1.91491 -1.84556
rclavicle 1.09332e-014 4.37326e-014
rhumerus -31.9923 -8.06909 -78.6111
rradius 38.3967
rwrist -13.2245
rhand -17.3341 -4.87445
rfingers 7.12502
rthumb 8.91299 -34.6662
lclavicle 1.09332e-014 4.37326e-014
lhumerus -42.981 0.32744 84.2605
lradius 38.7933
lwrist 11.7019
lhand -12.9096 0.610728
lfingers 7.12502
lthumb 13.1803 30.1741
rfemur -8.14849 -2.76176 31.9382
rtibia 23.9061
rfoot -12.7291 -20.6025
rtoes 1.02558
lfemur -28.0296 -6.95867 -8.68908
ltibia 52.2282
lfoot -12.356 8.42191
ltoes -19.4393
363
root -0.539735 18.0174 -21.8463 0.942996 11.2178 -5.52896
lowerback 5.17911 0.143062 4.64984
upperback -0.0737514 0.590581 3.57357
thorax -2.97675 0.254258 1.03515
lowerneck -16.0571 -2.91676 0.954405
upperneck 22.1562 -3.4099 -3.66783
head 9.56842 -1.91529 -1.86712
rclavicle -1.69464e-014 -1.90833e-014
rhumerus -31.8755 -8.07312 -78.6779
rradius 38.364
rwrist -13.2744
rhand -17.3344 -4.86476
rfingers 7.12502
rthumb 8.91266 -34.6565
lclavicle -1.69464e-014 -1.90833e-014
lhumerus -43.1503 0.351791 84.246
lradius 38.8
lwrist 11.7159
lhand -12.8842 0.631502
lfingers 7.12502
lthumb 13.2049 30.1933
rfemur -7.93546 -2.73559 32.0279
rtibia 23.7589
rfoot -12.7151 -20.6615
rtoes 0.988138
lfemur -28.4161 -6.83027 -8.66407
ltibia 51.503
lfoot -12.5563 8.51132
ltoes -19.422
364
root -0.544266 18.0171 -21.8157 0.897027 11.2214 -5.57697
lowerback 5.21833 0.18497 4.71288
upperback -0.0790638 0.653174 3.56222
thorax -3.00257 0.283938 0.983371
lowerneck -16.0452 -2.93304 0.941949
upperneck 22.1812 -3.43077 -3.65888
head 9.57485 -1.92476 -1.86487
rclavicle -5.46658e-016 -7.15625e-015
rhumerus -31.7597 -8.08457 -78.7459
rradius 38.3183
rwrist -13.3267
rhand -17.3175 -4.8525
rfingers 7.12502
rthumb 8.92895 -34.6436
lclavicle -5.46658e-016 -7.15625e-015
lhumerus -43.3291 0.36985 84.2336
lradius 38.816
lwrist 11.7119
lhand -12.8751 0.690863
lfingers 7.12502
lthumb 13.2135 30.2521
rfemur -7.70946 -2.72802 32.1166
rtibia 23.5939
rfoot -12.697 -20.6952
rtoes 0.963855
lfemur -28.7771 -6.69638 -8.64066
ltibia 50.7518
lfoot -12.7324 8.59777
ltoes -19.3933
365
root -0.548318 18.0174 -21.7848 0.843615 11.2174 -5.62177
lowerback 5.25222 0.232394 4.77953
upperback -0.081052 0.722555 3.54425
thorax -3.02153 0.316988 0.922155
lowerneck -16.0628 -2.97367 0.883764
upperneck 22.2924 -3.48362 -3.60366
head 9.6183 -1.94744 -1.84573
rclavicle 4.06515e-014 -3.18055e-015
rhumerus -31.6404 -8.12605 -78.8106
rradius 38.247
rwrist -13.3616
rhand -17.2999 -4.84468
rfingers 7.12502
rthumb 8.94597 -34.635
lclavicle 4.06515e-014 -3.18055e-015
lhumerus -43.4938 0.374317 84.2216
lradius 38.8099
lwrist 11.6919
lhand -12.854 0.699257
lfingers 7.12502
lthumb 13.2339 30.2592
rfemur -7.46264 -2.74175 32.1949
rtibia 23.4091
rfoot -12.674 -20.6949
rtoes 0.940637
lfemur -29.1016 -6.54962 -8.6284
ltibia 49.968
lfoot -12.8821 8.68501
ltoes -19.3305
366
root -0.552027 18.0189 -21.7533 0.785269 11.2177 -5.65125
lowerback 5.26584 0.279137 4.83357
upperback -0.0754125 0.788057 3.5199
thorax -3.02109 0.348602 0.861692
lowerneck -15.9975 -3.01147 0.81511
upperneck 22.3146 -3.53803 -3.51956
head 9.61576 -1.96834 -1.81103
rclavicle 7.60351e-015 -2.38542e-014
rhumerus -31.5191 -8.17433 -78.8763
rradius 38.1661
rwrist -13.4062
rhand -17.2755 -4.86985
rfingers 7.12502
rthumb 8.96949 -34.6592
lclavicle 7.60351e-015 -2.38542e-014
lhumerus -43.6493 0.375541 84.2096
lradius 38.796
lwrist 11.6652
lhand -12.8393 0.677357
lfingers 7.12502
lthumb 13.2481 30.2363
rfemur -7.19281 -2.78402 32.2505
rtibia 23.2023
rfoot -12.6424 -20.6642
rtoes 0.904437
lfemur -29.3847 -6.40482 -8.64115
ltibia 49.1449
lfoot -13.0172 8.77218
ltoes -19.2949
367
root -0.555269 18.0215 -21.7209 0.725781 11.2266 -5.65402
lowerback 5.25168 0.320018 4.85531
upperback -0.0577358 0.840928 3.49592
thorax -2.99306 0.374987 0.820742
lowerneck -15.9354 -3.0163 0.80544
upperneck 22.2894 -3.54927 -3.49049
head 9.59578 -1.97074 -1.79871
rclavicle -2.56432e-014 2.3059e-014
rhumerus -31.381 -8.21083 -78.935
rradius 38.0607
rwrist -13.4351
rhand -17.2491 -4.90223
rfingers 7.12502
rthumb 8.99501 -34.6905
lclavicle -2.56432e-014 2.3059e-014
lhumerus -43.7861 0.401206 84.2002
lradius 38.768
lwrist 11.6271
lhand -12.8178 0.66279
lfingers 7.12502
lthumb 13.2688 30.2204
rfemur -6.9012 -2.86015 32.2709
rtibia 22.975
rfoot -12.6049 -20.6029
rtoes 0.846014
lfemur -29.6256 -6.26411 -8.69329
ltibia 48.2775
lfoot -13.1309 8.87941
ltoes -19.2487
368
root -0.558586 18.0248 -21.688 0.67129 11.2569 -5.63481
lowerback 5.2169 0.351534 4.84363
upperback -0.0345933 0.877499 3.47545
thorax -2.94855 0.394129 0.803481
lowerneck -15.8389 -2.99732 0.836129
upperneck 22.1857 -3.52819 -3.50522
head 9.54076 -1.9599 -1.8016
rclavicle 7.50412e-015 5.08889e-014
rhumerus -31.2278 -8.23059 -78.9883
rradius 37.9374
rwrist -13.4694
rhand -17.2109 -4.92676
rfingers 7.12502
rthumb 9.03186 -34.7134
lclavicle 7.50412e-015 5.08889e-014
lhumerus -43.9204 0.444478 84.1955
lradius 38.7419
lwrist 11.6057
lhand -12.8084 0.622667
lfingers 7.12502
lthumb 13.2778 30.1797
rfemur -6.5979 -2.9589 32.266
rtibia 22.7245
rfoot -12.557 -20.5357
rtoes 0.774714
lfemur -29.8395 -6.13668 -8.77516
ltibia 47.3643
lfoot -13.2159 8.99112
ltoes -19.2253
369
root -0.561849 18.0286 -21.6545 0.61833 11.2959 -5.60538
lowerback 5.176 0.376045 4.81238
upperback -0.00489443 0.902909 3.45995
thorax -2.89439 0.408263 0.8032
lowerneck -15.7372 -2.96386 0.894186
upperneck 22.0093 -3.48629 -3.55628
head 9.45854 -1.94147 -1.81722
rclavicle 1.98785e-015 -1.59028e-015
rhumerus -31.0494 -8.24502 -79.0357
rradius 37.7809
rwrist -13.4726
rhand -17.1532 -4.90549
rfingers 7.12502
rthumb 9.08751 -34.6897
lclavicle 1.98785e-015 -1.59028e-015
lhumerus -44.0374 0.507774 84.192
lradius 38.7049
lwrist 11.6046
lhand -12.8054 0.604318
lfingers 7.12502
lthumb 13.2808 30.1612
rfemur -6.28084 -3.06059 32.2508
rtibia 22.453
rfoot -12.4962 -20.4742
rtoes 0.697275
lfemur -30.0239 -6.01092 -8.87497
ltibia 46.4053
lfoot -13.2833 9.11984
ltoes -19.277
